<?xml version="1.0" encoding="UTF-8" standalone="no"?>
<!-- Created with Inkscape (http://www.inkscape.org/) -->
<svg
   xmlns:dc="http://purl.org/dc/elements/1.1/"
   xmlns:cc="http://creativecommons.org/ns#"
   xmlns:rdf="http://www.w3.org/1999/02/22-rdf-syntax-ns#"
   xmlns:svg="http://www.w3.org/2000/svg"
   xmlns="http://www.w3.org/2000/svg"
   xmlns:xlink="http://www.w3.org/1999/xlink"
   xmlns:sodipodi="http://sodipodi.sourceforge.net/DTD/sodipodi-0.dtd"
   xmlns:inkscape="http://www.inkscape.org/namespaces/inkscape"
   id="svg2244"
   sodipodi:version="0.32"
   inkscape:version="0.46"
   width="256"
   height="256"
   version="1.0"
   sodipodi:docbase="C:\Users\svo\Pictures"
   sodipodi:docname="openastro.svg"
   inkscape:output_extension="org.inkscape.output.svg.inkscape"
   inkscape:export-filename="C:\Users\svo\Pictures\cadsoft_eagle.png"
   inkscape:export-xdpi="90"
   inkscape:export-ydpi="90">
  <metadata
     id="metadata2249">
    <rdf:RDF>
      <cc:Work
         rdf:about="">
        <dc:format>image/svg+xml</dc:format>
        <dc:type
           rdf:resource="http://purl.org/dc/dcmitype/StillImage" />
      </cc:Work>
    </rdf:RDF>
  </metadata>
  <defs
     id="defs2247">
    <inkscape:perspective
       sodipodi:type="inkscape:persp3d"
       inkscape:vp_x="0 : 128 : 1"
       inkscape:vp_y="0 : 1000 : 0"
       inkscape:vp_z="256 : 128 : 1"
       inkscape:persp3d-origin="128 : 85.333333 : 1"
       id="perspective16" />
    <linearGradient
       id="linearGradient3351">
      <stop
         style="stop-color:#ffffff;stop-opacity:1;"
         offset="0"
         id="stop3353" />
      <stop
         id="stop3359"
         offset="0.45652175"
         style="stop-color:#ffffee;stop-opacity:0.73333335;" />
      <stop
         style="stop-color:#9ec8ff;stop-opacity:0.7019608;"
         offset="1"
         id="stop3355" />
    </linearGradient>
    <radialGradient
       inkscape:collect="always"
       xlink:href="#linearGradient3351"
       id="radialGradient3158"
       cx="129.29108"
       cy="126.612"
       fx="129.29108"
       fy="126.612"
       r="87.771523"
       gradientTransform="matrix(1,0,0,1.3643697,0,-46.133571)"
       gradientUnits="userSpaceOnUse" />
  </defs>
  <sodipodi:namedview
     inkscape:window-height="723"
     inkscape:window-width="1069"
     inkscape:pageshadow="2"
     inkscape:pageopacity="0.0"
     guidetolerance="10.0"
     gridtolerance="10.0"
     objecttolerance="10.0"
     borderopacity="1.0"
     bordercolor="#666666"
     pagecolor="#ffffff"
     id="base"
     width="256px"
     height="256px"
     inkscape:zoom="1.1489362"
     inkscape:cx="28.304638"
     inkscape:cy="154.04182"
     inkscape:window-x="94"
     inkscape:window-y="24"
     inkscape:current-layer="g2259"
     showgrid="false" />
  <g
     id="g2259"
     transform="translate(-3.0111111e-6,-1.8518517e-7)">
    <g
       id="g2357"
       transform="translate(-610.12961,-12.277778)">
      <path
         style="opacity:1;fill:#010101"
         d="M 759.54278,17.326388 C 748.11048,31.811337 743.26528,50.49121 733.82409,66.263887 C 730.67889,69.571656 727.95919,74.546797 725.88659,77.076387 C 724.36049,80.993521 720.29659,78.366198 715.60119,84.780336 C 712.06259,88.397654 708.86829,92.225456 706.07409,96.451386 C 706.75959,93.106686 706.67099,86.373303 701.57409,88.326387 C 696.05749,94.213176 693.82319,103.27019 689.66779,109.88889 C 690.04409,105.54812 692.95819,100.59003 690.26159,96.513886 C 684.02257,95.681976 683.50591,104.08909 680.66782,107.76389 C 675.94709,119.5509 668.33083,130.90077 667.91782,143.88889 C 667.81707,153.59339 676.17733,159.71374 683.26157,164.73264 C 685.72067,166.6766 685.23092,170.46469 681.51157,170.17014 C 668.52044,173.68863 659.01136,184.71317 652.91782,196.10764 C 650.99657,201.59319 651.56967,207.86036 649.35532,213.01389 C 650.23499,217.87253 657.47944,224.02339 661.41782,218.76389 C 662.18127,215.98023 661.13448,212.67366 664.48032,210.92014 C 669.63355,206.98131 677.66196,202.75363 684.13657,205.98264 C 687.62659,208.92365 691.55499,212.16613 694.60529,215.38889 C 694.72249,221.75271 695.53519,229.2592 693.57409,234.98264 C 687.00259,238.14468 678.87551,237.33995 673.91782,243.51389 C 671.51138,245.29557 673.56967,248.68938 670.01157,249.04514 C 665.66927,250.31745 666.72321,256.56446 671.29282,256.26389 C 673.85889,255.90755 674.84956,256.47146 675.23032,259.04514 C 676.49263,262.95857 680.57145,260.63059 681.29282,257.82639 C 684.27954,255.73528 688.2276,251.6877 691.69909,255.32639 C 695.09669,255.27642 694.97359,261.5318 698.51159,258.79514 C 701.14199,257.86809 699.91439,253.35785 700.48029,252.23264 C 703.23709,255.91833 708.02789,252.05157 706.13659,248.32639 C 707.59619,245.45134 711.58439,249.71807 714.04279,249.54514 C 718.27269,251.1571 719.07689,246.25678 721.98029,244.60764 C 724.93839,242.48899 726.03819,239.20098 727.13659,236.04514 C 731.48589,236.58521 737.19799,237.35988 739.63659,232.95139 C 743.02778,233.52963 745.81768,229.50029 743.16778,227.04514 C 745.84338,226.34096 746.38778,223.53443 747.35528,221.73264 C 751.78368,219.82541 757.99818,225.56373 761.29278,220.57639 C 763.09178,218.28761 764.46808,217.74857 767.57408,218.45139 C 771.73618,219.67501 774.62528,214.72053 771.54278,211.70139 C 770.88698,209.7168 764.51958,207.29714 769.10528,207.01389 C 774.36078,205.6766 779.69458,211.56993 784.26158,208.76389 C 785.50088,205.92029 784.01388,203.91799 788.88658,204.76389 C 799.24248,204.06933 810.05538,204.43855 819.98028,201.82639 C 823.81168,202.21722 831.47348,200.42144 828.54278,195.10764 C 825.45278,193.736 830.93548,191.38095 829.38658,188.67014 C 828.66168,185.04186 824.26808,185.27737 821.60528,185.23264 C 824.90398,182.22649 821.22798,177.75011 817.63658,178.67014 C 817.07648,175.8906 819.46268,173.04288 817.73028,170.42014 C 814.33138,167.77249 810.60058,170.01623 806.79278,169.23264 C 793.19058,173.56224 779.72028,178.45769 765.28068,179.66471 C 760.89998,181.38932 763.43728,175.77006 766.60528,176.73264 C 771.39538,174.87038 779.24718,178.07672 781.85528,172.48264 C 782.47028,170.23734 779.74748,167.65209 783.26158,166.82639 C 786.18848,166.00396 787.97528,163.45248 788.91778,160.88889 C 791.36308,159.94146 793.44118,157.20766 792.73028,154.82639 C 796.06648,155.43925 796.44948,150.86982 796.10528,149.85764 C 800.16798,150.45133 801.13908,145.36863 798.66778,143.29514 C 802.10538,141.37856 801.32558,135.82731 797.44908,135.29514 C 801.04088,131.58211 796.17078,127.19127 795.76158,123.85764 C 798.08098,121.63745 803.12878,121.88556 803.10528,117.63889 C 807.63048,113.76118 802.21208,109.00533 798.69908,107.17014 C 796.93588,105.63055 791.55638,103.74356 796.82408,104.13889 C 801.78478,104.74324 805.44028,98.338026 802.13658,95.451386 C 807.43558,93.715826 814.88738,94.194406 818.19908,89.045137 C 818.21068,83.11118 810.27278,83.666657 806.14028,82.834249 C 800.60178,82.119611 793.44928,82.476225 788.85528,82.295137 C 797.99558,77.20914 806.61968,71.007879 814.35528,64.232637 C 818.13088,61.040164 818.62268,55.924034 820.04278,51.482637 C 807.19198,55.739162 795.38368,62.193713 782.98028,67.482637 C 792.67148,59.153621 799.67928,48.503353 808.57408,39.420137 C 812.26418,37.31039 812.35178,30.386018 807.01158,31.451387 C 801.10998,32.852912 796.88008,37.724345 791.04278,39.076387 C 787.29158,41.040179 782.94098,44.598175 780.19908,46.420137 C 786.48348,37.760557 795.96408,31.468921 801.63658,22.388887 C 801.18298,16.643849 794.51338,18.983045 791.76158,21.576387 C 780.01878,30.352629 768.69638,39.758322 757.60528,49.201387 C 757.22318,41.369421 762.68078,35.196654 763.51158,27.545137 C 764.29338,23.945952 766.32568,16.266474 760.32408,16.763888 L 759.54278,17.326388 z "
         id="path2372" />
    </g>
    <path
       style="opacity:1;fill:url(#radialGradient3158);fill-opacity:1;stroke:#cca321;stroke-width:1.10000001999999997;stroke-miterlimit:4;stroke-dasharray:none;stroke-opacity:0.63636360999999997;fill-rule:nonzero;"
       d="M 67.337805,244.81481 C 67.025655,243.98981 67.175275,242.52731 67.670305,241.56481 C 68.569635,239.81623 67.503625,239.14451 66.083325,240.56481 C 65.027085,241.62106 59.437175,241.50328 59.794165,240.43231 C 59.955955,239.94693 62.093455,238.80912 64.544165,237.90383 C 68.937785,236.28084 69.893025,234.08513 65.999995,234.55747 C 64.441275,234.74658 64.772225,234.14576 67.499995,231.83437 C 69.424995,230.2032 71.815445,228.85651 72.812095,228.84171 C 75.193985,228.80635 84.654445,225.77773 86.249995,224.53977 C 87.628275,223.47039 88.104355,200.84491 86.749995,200.77746 C 86.337495,200.75692 83.350215,198.28192 80.111595,195.27746 C 74.865465,190.41064 73.751545,189.81481 69.899105,189.81481 C 59.921445,189.81481 47.750275,197.75104 48.811815,203.56481 C 49.104685,205.16875 48.739975,205.81481 47.541655,205.81481 C 45.346795,205.81481 40.923995,200.78883 42.345665,199.91019 C 42.924865,199.55223 43.698785,196.12183 44.065485,192.28708 C 44.813345,184.46654 45.446735,183.20735 53.635155,173.26257 C 59.393205,166.26944 64.523485,162.96712 73.990285,160.16013 C 79.477025,158.53326 78.550935,152.1346 72.253365,148.15912 C 61.133295,141.13933 58.262955,133.42062 62.422015,121.72136 C 66.329445,110.72989 78.298235,85.018682 78.438545,87.314812 C 78.578625,89.607102 75.441205,103.77525 73.487665,109.67228 C 72.329335,113.16889 71.569115,116.21726 71.798295,116.44645 C 72.723845,117.37199 75.418285,112.68312 84.166395,94.923562 C 92.906115,77.181014 93.331675,76.524281 93.308915,80.814812 C 93.280455,86.177642 91.486555,92.960672 88.600665,98.617479 C 87.445295,100.88219 86.499995,102.99372 86.499995,103.30977 C 86.499995,104.89283 92.424905,96.493712 95.499995,90.551422 C 97.424995,86.831552 101.3872,81.206562 104.3049,78.051424 L 109.60981,72.314816 L 105.89062,79.314816 C 103.84507,83.164812 101.73124,86.888192 101.19321,87.588982 C 100.65519,88.289772 100.46205,89.110202 100.76401,89.412162 C 101.37591,90.024062 108.91476,80.046052 118.31173,66.186954 C 121.71568,61.166629 125.12832,56.538245 125.89537,55.901655 C 126.66241,55.265065 130.29593,48.122603 133.96985,40.029517 C 141.54994,23.331741 145.78124,14.962793 149.16297,9.9795277 C 151.32177,6.7983516 151.49728,6.7179516 151.46438,8.9252687 C 151.39644,13.482619 148.13431,25.093143 146.22994,27.55564 C 145.70216,28.238094 145.09343,31.061342 144.87721,33.829525 C 144.66099,36.597708 144.37516,39.358087 144.24204,39.963701 C 143.6445,42.682118 146.82988,41.594637 151.2159,37.582844 C 153.84716,35.176095 158.025,31.661673 160.5,29.773017 C 162.975,27.884362 168.825,23.13746 173.5,19.224346 C 182.22627,11.9202 188.5,7.9734757 188.5,9.7880367 C 188.5,10.351557 183.775,15.549085 178,21.3381 C 172.225,27.127115 167.5,32.302609 167.5,32.839199 C 167.5,33.375788 166.77686,33.814816 165.89301,33.814816 C 164.83155,33.814816 164.49421,34.357347 164.8993,35.412988 C 165.26645,36.369778 164.46105,38.260826 162.89242,40.125033 C 158.12955,45.785391 162.28257,44.106811 172.12985,36.39143 C 177.44844,32.224292 182.67144,28.814816 183.73653,28.814816 C 184.80161,28.814816 187.54661,27.504964 189.83652,25.904034 C 194.25574,22.814456 198.50824,21.139901 198.48753,22.497428 C 198.48067,22.946992 195.10567,26.887099 190.98753,31.253222 C 186.86939,35.619346 183.5,39.564104 183.5,40.019351 C 183.5,41.082856 168.79341,55.814816 167.73174,55.814816 C 167.29145,55.814816 166.13375,57.164816 165.15907,58.814816 C 164.18439,60.464816 163.62566,61.814816 163.91743,61.814816 C 165.15382,61.814816 179.64584,55.655591 187.43034,51.821648 C 192.06702,49.538033 198.0484,46.838349 200.72229,45.822351 L 205.58391,43.97508 L 204.94971,46.144948 C 204.24694,48.549405 200.09405,52.509729 194,56.586919 C 191.8,58.058818 188.2,60.672272 186,62.394595 C 183.8,64.116917 179.37277,66.709349 176.1617,68.155554 C 167.28433,72.153761 168.90086,73.374602 182.60097,73.018648 C 194.06638,72.720756 205.81768,74.361788 205.21283,76.176325 C 204.80828,77.389986 196.85799,79.663461 188.25,81.027042 C 184.5375,81.615132 181.5,82.455392 181.5,82.894282 C 181.5,83.333172 183.525,83.995932 186,84.367082 C 188.78027,84.784012 190.5,85.558302 190.5,86.393172 C 190.5,88.777222 187.16275,89.637702 180.11175,89.071722 C 174.50425,88.621602 173.31776,88.777672 173.68351,89.917262 C 173.9302,90.685912 176.12733,91.990102 178.56602,92.815452 C 182.66045,94.201172 190.01097,98.943389 191.73134,101.30912 C 192.13358,101.86225 191.75102,102.84737 190.8812,103.49828 C 190.01139,104.14918 189.56668,105.11368 189.89295,105.6416 C 190.21923,106.16953 189.30993,106.89668 187.87229,107.25751 C 184.85021,108.016 182.49836,110.09069 182.50374,111.99338 C 182.50579,112.72017 183.37363,114.73529 184.43226,116.47144 C 186.10715,119.21824 186.1757,119.86739 184.96032,121.47144 C 182.98394,124.07985 183.17594,125.81481 185.44098,125.81481 C 188.36747,125.81481 188.80694,127.48641 186.33555,129.21744 C 184.19537,130.71648 184.18587,130.81021 185.97381,132.78587 C 187.77856,134.7801 187.76027,134.81507 184.90499,134.83012 C 182.05466,134.84515 178.60125,136.31158 179.52896,137.11296 C 179.78803,137.33675 180.9,138.02253 182,138.63692 C 183.58808,139.52392 183.66479,139.76026 182.37244,139.7844 C 180.09943,139.82687 178.27811,142.19292 179.544,143.45881 C 180.20588,144.12069 179.69429,144.90805 178.02021,145.804 C 176.63409,146.54582 175.5,147.92213 175.5,148.86247 C 175.5,149.82411 174.17066,151.1228 172.46178,151.83064 C 168.92821,153.29429 167.2634,155.81394 168.50379,157.82095 C 169.85582,160.00857 168.72495,160.80976 164.19098,160.87647 C 157.81545,160.97027 147.19214,163.23839 146.73731,164.60289 C 146.5023,165.3079 147.3093,165.85076 148.66667,165.90076 C 150.86682,165.98181 150.84712,166.03286 148.32156,166.79514 C 146.84841,167.23978 144.65474,168.52438 143.44672,169.64982 L 141.25033,171.69607 L 147.12516,171.17407 C 161.37585,169.90784 174.32679,167.5255 182.34452,164.69543 C 191.17489,161.57851 196.62962,159.81481 197.43918,159.81481 C 197.68799,159.81481 195.77846,161.1549 193.19578,162.79279 C 186.4154,167.09278 187.42738,167.36861 195.08305,163.30719 C 201.04237,160.14571 205.5,158.89334 205.5,160.38055 C 205.5,160.69171 205.03417,161.81671 204.46482,162.88055 C 203.70658,164.29733 203.75321,164.81481 204.63913,164.81481 C 205.30435,164.81481 204.75769,165.99976 203.42431,167.44804 L 201,170.08127 L 205.66793,169.58013 C 209.21847,169.19895 210.21731,169.38792 209.84061,170.36958 C 209.56822,171.07941 208.70516,171.90584 207.92268,172.20611 C 204.21195,173.63005 208.39859,176.33434 213.75,175.97018 C 216.67174,175.77135 217.41408,177.50073 215.31012,179.60469 C 213.50244,181.41237 213.50733,183.60365 215.32061,184.29946 C 217.97679,185.31874 214.71722,186.7816 209.75,186.7995 C 207.4125,186.80792 205.5,187.20244 205.5,187.67621 C 205.5,188.14998 197.7375,188.86486 188.25,189.26483 C 178.7625,189.66481 170.79203,190.19764 170.53785,190.44891 C 170.28368,190.70018 170.62499,191.7853 171.29633,192.86029 C 172.76009,195.20415 172.83091,195.19567 167.5,193.31481 C 162.04807,191.39126 158.17262,191.41563 154.33998,193.39756 L 151.27928,194.98031 L 154.86467,197.41664 C 156.83663,198.75663 158.90764,200.70797 159.4669,201.75297 C 160.40125,203.4988 160.13957,203.62774 156.24187,203.34206 C 153.90884,203.17106 150.65,202.72195 149,202.34403 L 146,201.65689 L 148.5,203.71362 C 150.6108,205.45015 150.71837,205.7738 149.19098,205.79257 C 148.12627,205.80566 147.66344,206.27025 148.06609,206.92174 C 148.53176,207.67522 147.83216,207.85241 145.87511,207.47665 C 144.2938,207.17304 141.62267,206.65787 139.93927,206.33184 C 136.86268,205.73597 133.40517,207.98689 133.82126,210.31481 C 133.91957,210.86481 132.9875,211.75902 131.75,212.30194 C 129.24351,213.4016 128.89956,214.81437 130.7,216.61481 C 131.63333,217.54814 131.41893,217.81481 129.73518,217.81481 C 128.54453,217.81481 127.10332,218.6875 126.53248,219.75412 C 125.62991,221.44059 124.71306,221.62636 119.49989,221.17908 C 114.49502,220.74966 113.59856,220.9081 114.07075,222.13862 C 114.38182,222.94926 114.14832,223.91412 113.55185,224.28276 C 112.95539,224.65139 112.75711,225.42182 113.11124,225.99481 C 113.73262,227.00023 107.83775,232.80769 106.19097,232.81246 C 105.74601,232.81375 105.66007,233.26481 105.99999,233.81481 C 106.88685,235.24977 105.13239,235.05165 100.48467,233.192 C 96.719665,231.68555 96.295815,231.68962 94.572915,233.24882 C 93.396675,234.31331 92.910165,235.73166 93.244515,237.12163 C 93.676625,238.91798 93.530345,239.08864 92.436035,238.06481 C 91.701215,237.37731 90.452105,236.81481 89.660235,236.81481 C 88.868375,236.81481 87.673445,236.06669 87.004845,235.15233 C 86.240365,234.10683 85.135265,233.74079 84.027145,234.16602 C 82.459115,234.76773 82.553305,235.06891 84.882535,236.90108 C 86.794315,238.40488 87.468725,239.81662 87.383995,242.13739 C 87.320195,243.88497 87.071095,244.57349 86.830435,243.66744 C 86.589775,242.76138 85.629475,241.74169 84.696435,241.40145 C 83.763395,241.06122 81.920435,240.15261 80.600975,239.38232 C 78.434405,238.11749 77.735325,238.24016 73.386015,240.6483 C 70.737245,242.11488 68.420515,243.98981 68.237715,244.81481 C 67.942295,246.14814 67.842305,246.14814 67.337805,244.81481 z M 50.499995,188.81481 C 50.499995,186.52236 47.989225,186.09752 47.163165,188.2502 C 46.667815,189.54104 47.685065,190.5185 49.749995,190.73586 C 50.162495,190.77928 50.499995,189.91481 50.499995,188.81481 z"
       id="path2261"
       sodipodi:nodetypes="cssssssssssssssssssssssssssscccssssssssssssssssssssssssssssscccssssssssssssssssssssssssssssssssssscccssssssscccssssssssssscccsscccsssssssssssssssssssssssssssssccssc" />
    <g
       id="g2300"
       transform="translate(155.79629,-17.407407)" />
  </g>
</svg>
