<?xml version="1.0" encoding="ISO-8859-1" standalone="no"?>
<!DOCTYPE svg PUBLIC "-//W3C//DTD SVG 1.0//EN"
  "http://www.w3.org/TR/2001/REC-SVG-20010904/DTD/svg10.dtd" [
  <!ATTLIST svg xmlns:xlink CDATA #FIXED "http://www.w3.org/1999/xlink">
]>

<svg xmlns="http://www.w3.org/2000/svg" xmlns:xlink="http://www.w3.org/1999/xlink" width="12" height="12">
	<path
	d="M 1.4245169,1.2968598 C 1.4245169,9.6763129 1.4245169,9.6763129 1.4245169,9.6763129 M 1.9208331,5.3868279 C 2.7722886,5.3352439 3.5541553,5.6864129 3.9365237,6.2921569 C 4.318892,6.8979009 4.2351614,7.6527129 3.7206622,8.2380989 C 3.2061632,8.8234849 2.3505101,9.1374829 1.5147471,9.0476019 M 9.8528639,5.5851249 C 9.8530449,7.4793419 8.8649699,9.0150579 7.6460539,9.0150579 C 6.4271389,9.0150579 5.4390629,7.4793419 5.4392449,5.5851249 C 5.4390629,3.6909088 6.4271389,2.1551928 7.6460539,2.1551928 C 8.8649699,2.1551928 9.8530449,3.6909088 9.8528639,5.5851249 z M 8.2580449,7.2627959 C 10.198256,9.9803679 10.198256,9.9803679 10.198256,9.9803679"
	style="opacity:1;fill:none;fill-opacity:1;fill-rule:nonzero;stroke: #000000;stroke-width:1.47633064;stroke-linecap:butt;stroke-linejoin:miter;stroke-miterlimit:4;stroke-dasharray:none;stroke-opacity:1"
	/>
</svg>