<?xml version="1.0" encoding="ISO-8859-1" standalone="no"?>
<!DOCTYPE svg PUBLIC "-//W3C//DTD SVG 1.0//EN"
  "http://www.w3.org/TR/2001/REC-SVG-20010904/DTD/svg10.dtd" [
  <!ATTLIST svg xmlns:xlink CDATA #FIXED "http://www.w3.org/1999/xlink">
]>

<svg xmlns="http://www.w3.org/2000/svg" xmlns:xlink="http://www.w3.org/1999/xlink" width="12" height="12">
	<path
	d="M 5.2464137,9.1024114 C 5.2607667,10.02313 4.6424047,10.911756 3.7767667,11.223735 C 3.0043007,11.514522 2.0756907,11.345713 1.4678167,10.782886 C 0.87062867,10.24746 0.59075067,9.3818092 0.77707567,8.5995614 C 0.95872867,7.7920843 1.6125557,7.1074434 2.4194157,6.9099205 C 3.1900627,6.71068 4.0621317,6.9454966 4.6100877,7.5281058 C 5.0129557,7.9453516 5.2517947,8.5210194 5.2464137,9.1024114 z M 11.246414,3.1024129 C 11.260765,4.0231317 10.642404,4.9117574 9.7767657,5.2237361 C 9.0042997,5.5145238 8.0756897,5.3457135 7.4678147,4.7828873 C 6.8706277,4.2474613 6.5907497,3.38181 6.7770747,2.5995624 C 6.9587267,1.7920853 7.6125547,1.1074445 8.4194147,0.9099215 C 9.1900617,0.7106812 10.06213,0.9454982 10.610087,1.5281073 C 11.012955,1.9453529 11.251794,2.5210206 11.246414,3.1024129 z M 4.5082497,7.578743 C 5.5348537,6.5945226 6.5614577,5.6103022 7.5880617,4.6260818"
	style="opacity:1;fill:none;fill-opacity:1;fill-rule:nonzero;stroke: #000000;stroke-width:1.47633064;stroke-linecap:butt;stroke-linejoin:miter;stroke-miterlimit:4;stroke-dasharray:none;stroke-opacity:1"
	/>
</svg>